<svg width="50" height="50" viewBox="0 0 50 50" fill="none" xmlns="http://www.w3.org/2000/svg">
<rect width="50" height="50" rx="10" transform="matrix(1 0 0 -1 0 50)" fill="#229ED9"/>
<path fill-rule="evenodd" clip-rule="evenodd" d="M13 9C11.8954 9 11 9.89543 11 11V38.9C11 40.0046 11.8954 40.9 13 40.9H30C31.6569 40.9 33 39.5569 33 37.9V34.45C33 33.3454 32.1046 32.45 31 32.45C29.8954 32.45 29 33.3454 29 34.45C29 35.5546 28.1046 36.45 27 36.45H17C15.8954 36.45 15 35.5546 15 34.45V15.45C15 14.3455 15.8954 13.45 17 13.45H27C28.1046 13.45 29 14.3455 29 15.45V16.45C29 17.5546 29.8954 18.45 31 18.45C32.1046 18.45 33 17.5546 33 16.45V11C33 9.89543 32.1046 9 31 9H13ZM29 23.45H27C26.1716 23.45 25.5 24.1216 25.5 24.95C25.5 25.7784 26.1716 26.45 27 26.45H29H33H37.8247L35.5909 28.293C34.9519 28.8201 34.8612 29.7656 35.3884 30.4046C35.9156 31.0436 36.861 31.1343 37.5 30.6071L42.9546 26.1071C43.3 25.8221 43.5 25.3978 43.5 24.95C43.5 24.5023 43.3 24.0779 42.9546 23.793L37.5 19.293C36.861 18.7658 35.9156 18.8564 35.3884 19.4954C34.8612 20.1345 34.9519 21.0799 35.5909 21.6071L37.8247 23.45H33H29Z" fill="white"/>
</svg>
