<svg width="50" height="50" viewBox="0 0 50 50" fill="none" xmlns="http://www.w3.org/2000/svg">
<rect width="50" height="50" rx="10" transform="matrix(1 0 0 -1 0 50)" fill="#229ED9"/>
<path d="M24.8185 38.266C22.8679 38.266 21.1199 37.9493 19.5745 37.316C18.0292 36.6827 16.7879 35.7453 15.8505 34.504C14.9385 33.2627 14.4572 31.768 14.4065 30.02H21.3225C21.4239 31.008 21.7659 31.768 22.3485 32.3C22.9312 32.8067 23.6912 33.06 24.6285 33.06C25.5912 33.06 26.3512 32.8447 26.9085 32.414C27.4659 31.958 27.7445 31.3373 27.7445 30.552C27.7445 29.8933 27.5165 29.3487 27.0605 28.918C26.6299 28.4873 26.0852 28.1327 25.4265 27.854C24.7932 27.5753 23.8812 27.2587 22.6905 26.904C20.9679 26.372 19.5619 25.84 18.4725 25.308C17.3832 24.776 16.4459 23.9907 15.6605 22.952C14.8752 21.9133 14.4825 20.558 14.4825 18.886C14.4825 16.4033 15.3819 14.4653 17.1805 13.072C18.9792 11.6533 21.3225 10.944 24.2105 10.944C27.1492 10.944 29.5179 11.6533 31.3165 13.072C33.1152 14.4653 34.0779 16.416 34.2045 18.924H27.1745C27.1239 18.0627 26.8072 17.3913 26.2245 16.91C25.6419 16.4033 24.8945 16.15 23.9825 16.15C23.1972 16.15 22.5639 16.3653 22.0825 16.796C21.6012 17.2013 21.3605 17.7967 21.3605 18.582C21.3605 19.4433 21.7659 20.1147 22.5765 20.596C23.3872 21.0773 24.6539 21.5967 26.3765 22.154C28.0992 22.7367 29.4925 23.294 30.5565 23.826C31.6459 24.358 32.5832 25.1307 33.3685 26.144C34.1539 27.1573 34.5465 28.462 34.5465 30.058C34.5465 31.578 34.1539 32.9587 33.3685 34.2C32.6085 35.4413 31.4939 36.4293 30.0245 37.164C28.5552 37.8987 26.8199 38.266 24.8185 38.266Z" fill="white"/>
</svg>
